<svg xmlns="http://www.w3.org/2000/svg" version="1.1" xmlns:xlink="http://www.w3.org/1999/xlink" xmlns:svgjs="http://svgjs.dev/svgjs" width="1000" height="358" viewBox="0 0 1000 358"><g transform="matrix(1,0,0,1,-0.6060603865807934,0.6235157736138319)"><svg viewBox="0 0 396 142" data-background-color="#ffffff" preserveAspectRatio="xMidYMid meet" height="358" width="1000" xmlns="http://www.w3.org/2000/svg" xmlns:xlink="http://www.w3.org/1999/xlink"><g id="tight-bounds" transform="matrix(1,0,0,1,0.2400000869139376,-0.2473163124390112)"><svg viewBox="0 0 395.52 142.49463262487802" height="142.49463262487802" width="395.52"><g><svg viewBox="0 0 678.4640917788586 244.43135999999998" height="142.49463262487802" width="395.52"><g transform="matrix(1,0,0,1,0,9.337576707704997)"><svg viewBox="0 0 395.52 225.75620658459" height="225.75620658459" width="395.52"><g id="textblocktransform"><svg viewBox="0 0 395.52 225.75620658459" height="225.75620658459" width="395.52" id="textblock"><g><svg viewBox="0 0 395.52 163.137005789909" height="163.137005789909" width="395.52"><g transform="matrix(1,0,0,1,0,0)"><svg width="395.52" viewBox="1.6800000667572021 -36.040000915527344 88.55000305175781 36.53000259399414" height="163.137005789909" data-palette-color="#0080ff"><path d="M21.61-9.33L21.61-9.33Q21.61-11.4 20.14-12.51 18.68-13.62 14.87-14.86 11.06-16.09 8.84-17.29L8.84-17.29Q2.78-20.56 2.78-26.1L2.78-26.1Q2.78-28.98 4.41-31.24 6.03-33.5 9.07-34.77 12.11-36.04 15.89-36.04L15.89-36.04Q19.7-36.04 22.68-34.66 25.66-33.28 27.31-30.76 28.96-28.25 28.96-25.05L28.96-25.05 21.63-25.05Q21.63-27.49 20.09-28.85 18.55-30.2 15.77-30.2L15.77-30.2Q13.09-30.2 11.6-29.06 10.11-27.93 10.11-26.07L10.11-26.07Q10.11-24.34 11.85-23.17 13.6-22 16.99-20.97L16.99-20.97Q23.24-19.09 26.1-16.31 28.96-13.53 28.96-9.38L28.96-9.38Q28.96-4.76 25.46-2.14 21.97 0.49 16.06 0.49L16.06 0.49Q11.96 0.49 8.59-1.01 5.22-2.51 3.45-5.13 1.68-7.74 1.68-11.18L1.68-11.18 9.03-11.18Q9.03-5.3 16.06-5.3L16.06-5.3Q18.68-5.3 20.14-6.36 21.61-7.42 21.61-9.33ZM60.67-35.55L60.67-29.61 49.78-29.61 49.78 0 42.45 0 42.45-29.61 31.71-29.61 31.71-35.55 60.67-35.55ZM82.88-9.33L82.88-9.33Q82.88-11.4 81.42-12.51 79.95-13.62 76.14-14.86 72.33-16.09 70.11-17.29L70.11-17.29Q64.06-20.56 64.06-26.1L64.06-26.1Q64.06-28.98 65.68-31.24 67.3-33.5 70.34-34.77 73.38-36.04 77.17-36.04L77.17-36.04Q80.98-36.04 83.95-34.66 86.93-33.28 88.58-30.76 90.23-28.25 90.23-25.05L90.23-25.05 82.91-25.05Q82.91-27.49 81.37-28.85 79.83-30.2 77.05-30.2L77.05-30.2Q74.36-30.2 72.87-29.06 71.38-27.93 71.38-26.07L71.38-26.07Q71.38-24.34 73.13-23.17 74.87-22 78.27-20.97L78.27-20.97Q84.52-19.09 87.37-16.31 90.23-13.53 90.23-9.38L90.23-9.38Q90.23-4.76 86.74-2.14 83.25 0.49 77.34 0.49L77.34 0.49Q73.24 0.49 69.87-1.01 66.5-2.51 64.73-5.13 62.96-7.74 62.96-11.18L62.96-11.18 70.31-11.18Q70.31-5.3 77.34-5.3L77.34-5.3Q79.95-5.3 81.42-6.36 82.88-7.42 82.88-9.33Z" opacity="1" transform="matrix(1,0,0,1,0,0)" fill="#0080ff" class="undefined-text-0" data-fill-palette-color="primary" id="text-0"></path></svg></g></svg></g><g transform="matrix(1,0,0,1,163.310208,201.64973756876756)"><svg viewBox="0 0 232.209792 24.106469015822423" height="24.106469015822423" width="232.209792"><g transform="matrix(1,0,0,1,0,0)"><svg width="232.209792" viewBox="3.6500000953674316 -35.599998474121094 439.20001220703125 45.599998474121094" height="24.106469015822423" data-palette-color="#0080ff"><path d="M21.15-32.5L21.15-32.5 21.15-29.05Q19.95-29.85 18-30.4 16.05-30.95 14.2-30.95L14.2-30.95Q10.85-30.95 8.85-29.38 6.85-27.8 6.85-25.2L6.85-25.2Q6.85-23.85 7.38-22.8 7.9-21.75 9.15-20.88 10.4-20 11.33-19.53 12.25-19.05 14.15-18.25L14.15-18.25Q15.9-17.5 16.8-17.07 17.7-16.65 19.1-15.75 20.5-14.85 21.23-13.98 21.95-13.1 22.53-11.73 23.1-10.35 23.1-8.7L23.1-8.7Q23.1-4.3 20.15-1.98 17.2 0.35 12.6 0.35L12.6 0.35Q7.4 0.35 3.75-1.85L3.75-1.85 3.75-5.3Q5.25-4.15 7.63-3.4 10-2.65 12.45-2.65L12.45-2.65Q16-2.65 17.98-4.2 19.95-5.75 19.95-8.65L19.95-8.65Q19.95-10.85 18.45-12.23 16.95-13.6 14.1-14.85L14.1-14.85Q13.7-15.05 12.35-15.63 11-16.2 10.45-16.45 9.9-16.7 8.75-17.3 7.6-17.9 7.08-18.35 6.55-18.8 5.75-19.55 4.95-20.3 4.6-21.05 4.25-21.8 3.95-22.83 3.65-23.85 3.65-25L3.65-25Q3.65-29.25 6.7-31.63 9.75-34 14.15-34L14.15-34Q18.35-34 21.15-32.5ZM33.4 0L30.35 0 30.35-25.35 33.4-25.35 33.4 0ZM30.35-31.95Q29.75-32.55 29.75-33.45 29.75-34.35 30.35-34.98 30.95-35.6 31.85-35.6 32.75-35.6 33.37-34.98 34-34.35 34-33.45 34-32.55 33.37-31.95 32.75-31.35 31.85-31.35 30.95-31.35 30.35-31.95ZM41.2-25.35L44.25-25.35 44.25-21.2Q46.4-25.75 51.35-25.75L51.35-25.75Q57.45-25.75 58.85-20.75L58.85-20.75Q61.2-25.75 66.34-25.75L66.34-25.75Q70.34-25.75 72.3-23.53 74.25-21.3 74.25-17.7L74.25-17.7 74.25 0 71.2 0 71.2-16.75Q71.2-22.8 65.9-22.8L65.9-22.8Q63.3-22.8 61.27-20.4 59.25-18 59.25-14L59.25-14 59.25 0 56.2 0 56.2-16.75Q56.2-22.8 50.9-22.8L50.9-22.8Q48.3-22.8 46.27-20.4 44.25-18 44.25-14L44.25-14 44.25 0 41.2 0 41.2-25.35ZM92.24-2.5L92.24-2.5Q95.64-2.5 97.84-5.23 100.04-7.95 100.04-13L100.04-13Q100.04-17.35 97.92-20.1 95.79-22.85 92.54-22.85 89.29-22.85 86.94-20.48 84.59-18.1 84.59-12.55L84.59-12.55Q84.59-9.75 85.37-7.68 86.14-5.6 87.37-4.53 88.59-3.45 89.82-2.98 91.04-2.5 92.24-2.5ZM81.54-25.35L84.59-25.35 84.59-21.65Q87.24-25.75 92.44-25.75L92.44-25.75Q97.54-25.75 100.39-22.03 103.24-18.3 103.24-12.95L103.24-12.95Q103.24-7.05 100.19-3.33 97.14 0.4 92.34 0.4L92.34 0.4Q87.39 0.4 84.59-3.8L84.59-3.8 84.59 10 81.54 10 81.54-25.35ZM112.54 0L109.49 0 109.49-35.35 112.54-35.35 112.54 0ZM121.99-14.1L136.94-14.1 136.94-15.25Q136.94-18.7 135.01-20.75 133.09-22.8 129.84-22.8L129.84-22.8Q126.64-22.8 124.49-20.55 122.34-18.3 121.99-14.1L121.99-14.1ZM138.49-4.35L138.49-4.35 138.49-1.25Q135.49 0.25 131.49 0.25L131.49 0.25Q125.84 0.25 122.31-3.28 118.79-6.8 118.79-12.55L118.79-12.55Q118.79-18.65 121.89-22.15 124.99-25.65 129.94-25.65L129.94-25.65Q134.59-25.65 137.34-22.6 140.09-19.55 140.09-14L140.09-14Q140.09-12.3 139.89-11.3L139.89-11.3 121.99-11.3Q122.34-7.1 124.89-4.88 127.44-2.65 131.64-2.65L131.64-2.65Q135.94-2.65 138.49-4.35ZM155.33-33.7L177.08-33.7 177.08-30.85 167.73-30.85 167.73 0 164.63 0 164.63-30.85 155.33-30.85 155.33-33.7ZM184.88 0L181.83 0 181.83-25.35 184.88-25.35 184.88 0ZM181.83-31.95Q181.23-32.55 181.23-33.45 181.23-34.35 181.83-34.98 182.43-35.6 183.33-35.6 184.23-35.6 184.86-34.98 185.48-34.35 185.48-33.45 185.48-32.55 184.86-31.95 184.23-31.35 183.33-31.35 182.43-31.35 181.83-31.95ZM194.33-12.55L194.33-12.55Q194.33-8.25 196.98-5.3 199.63-2.35 204.53-2.35L204.53-2.35Q207.58-2.35 209.73-3.95L209.73-3.95 209.73-0.85Q207.58 0.6 204.18 0.6L204.18 0.6Q198.03 0.6 194.58-3.28 191.13-7.15 191.13-12.6L191.13-12.6Q191.13-17.9 194.65-21.85 198.18-25.8 204.18-25.8L204.18-25.8Q207.28-25.8 209.73-24.45L209.73-24.45 209.73-21.35Q207.48-22.85 204.48-22.85L204.48-22.85Q199.83-22.85 197.08-19.83 194.33-16.8 194.33-12.55ZM219.33 0L216.28 0 216.28-35.35 219.33-35.35 219.33 0ZM234.13-25.35L223.78-13.3 234.48 0 230.68 0 220.08-13.3 230.38-25.35 234.13-25.35ZM241.02-14.1L255.97-14.1 255.97-15.25Q255.97-18.7 254.05-20.75 252.12-22.8 248.87-22.8L248.87-22.8Q245.67-22.8 243.52-20.55 241.37-18.3 241.02-14.1L241.02-14.1ZM257.52-4.35L257.52-4.35 257.52-1.25Q254.52 0.25 250.52 0.25L250.52 0.25Q244.87 0.25 241.35-3.28 237.82-6.8 237.82-12.55L237.82-12.55Q237.82-18.65 240.92-22.15 244.02-25.65 248.97-25.65L248.97-25.65Q253.62-25.65 256.37-22.6 259.12-19.55 259.12-14L259.12-14Q259.12-12.3 258.92-11.3L258.92-11.3 241.02-11.3Q241.37-7.1 243.92-4.88 246.47-2.65 250.67-2.65L250.67-2.65Q254.97-2.65 257.52-4.35ZM277.27-22.75L270.02-22.75 270.02-7Q270.02-2.65 274.07-2.65L274.07-2.65Q276.07-2.65 277.47-3.8L277.47-3.8 277.47-0.7Q276.02 0.25 274.12 0.25L274.12 0.25Q266.92 0.25 266.92-7.15L266.92-7.15 266.92-22.75 262.77-22.75 262.77-25.35 266.92-25.35 266.92-31.7 270.02-31.7 270.02-25.35 277.27-25.35 277.27-22.75ZM312.97-32.5L312.97-32.5 312.97-29.05Q311.77-29.85 309.82-30.4 307.87-30.95 306.02-30.95L306.02-30.95Q302.67-30.95 300.67-29.38 298.67-27.8 298.67-25.2L298.67-25.2Q298.67-23.85 299.19-22.8 299.72-21.75 300.97-20.88 302.22-20 303.14-19.53 304.07-19.05 305.97-18.25L305.97-18.25Q307.72-17.5 308.62-17.07 309.52-16.65 310.92-15.75 312.32-14.85 313.04-13.98 313.77-13.1 314.34-11.73 314.92-10.35 314.92-8.7L314.92-8.7Q314.92-4.3 311.97-1.98 309.02 0.35 304.42 0.35L304.42 0.35Q299.22 0.35 295.57-1.85L295.57-1.85 295.57-5.3Q297.07-4.15 299.44-3.4 301.82-2.65 304.27-2.65L304.27-2.65Q307.82-2.65 309.79-4.2 311.77-5.75 311.77-8.65L311.77-8.65Q311.77-10.85 310.27-12.23 308.77-13.6 305.92-14.85L305.92-14.85Q305.52-15.05 304.17-15.63 302.82-16.2 302.27-16.45 301.72-16.7 300.57-17.3 299.42-17.9 298.89-18.35 298.37-18.8 297.57-19.55 296.77-20.3 296.42-21.05 296.07-21.8 295.77-22.83 295.47-23.85 295.47-25L295.47-25Q295.47-29.25 298.52-31.63 301.57-34 305.97-34L305.97-34Q310.17-34 312.97-32.5ZM323.61-14.1L338.56-14.1 338.56-15.25Q338.56-18.7 336.64-20.75 334.71-22.8 331.46-22.8L331.46-22.8Q328.26-22.8 326.11-20.55 323.96-18.3 323.61-14.1L323.61-14.1ZM340.11-4.35L340.11-4.35 340.11-1.25Q337.11 0.25 333.11 0.25L333.11 0.25Q327.46 0.25 323.94-3.28 320.41-6.8 320.41-12.55L320.41-12.55Q320.41-18.65 323.51-22.15 326.61-25.65 331.56-25.65L331.56-25.65Q336.21-25.65 338.96-22.6 341.71-19.55 341.71-14L341.71-14Q341.71-12.3 341.51-11.3L341.51-11.3 323.61-11.3Q323.96-7.1 326.51-4.88 329.06-2.65 333.26-2.65L333.26-2.65Q337.56-2.65 340.11-4.35ZM347.91-25.35L350.96-25.35 350.96-21.05Q353.06-25.65 358.06-25.65L358.06-25.65Q358.41-25.65 359.31-25.55L359.31-25.55 359.31-22.45Q358.31-22.75 357.31-22.75L357.31-22.75Q354.61-22.75 352.79-20.08 350.96-17.4 350.96-14.15L350.96-14.15 350.96 0 347.91 0 347.91-25.35ZM374.16 0L370.06 0 361.31-25.35 364.51-25.35 368.06-14.7 372.11-2.45Q372.61-4.3 376.26-14.7L376.26-14.7 379.96-25.35 383.16-25.35 374.16 0ZM391.71 0L388.66 0 388.66-25.35 391.71-25.35 391.71 0ZM388.66-31.95Q388.06-32.55 388.06-33.45 388.06-34.35 388.66-34.98 389.26-35.6 390.16-35.6 391.06-35.6 391.68-34.98 392.31-34.35 392.31-33.45 392.31-32.55 391.68-31.95 391.06-31.35 390.16-31.35 389.26-31.35 388.66-31.95ZM401.15-12.55L401.15-12.55Q401.15-8.25 403.8-5.3 406.45-2.35 411.35-2.35L411.35-2.35Q414.4-2.35 416.55-3.95L416.55-3.95 416.55-0.85Q414.4 0.6 411 0.6L411 0.6Q404.85 0.6 401.4-3.28 397.95-7.15 397.95-12.6L397.95-12.6Q397.95-17.9 401.48-21.85 405-25.8 411-25.8L411-25.8Q414.1-25.8 416.55-24.45L416.55-24.45 416.55-21.35Q414.3-22.85 411.3-22.85L411.3-22.85Q406.65-22.85 403.9-19.83 401.15-16.8 401.15-12.55ZM424.75-14.1L439.7-14.1 439.7-15.25Q439.7-18.7 437.78-20.75 435.85-22.8 432.6-22.8L432.6-22.8Q429.4-22.8 427.25-20.55 425.1-18.3 424.75-14.1L424.75-14.1ZM441.25-4.35L441.25-4.35 441.25-1.25Q438.25 0.25 434.25 0.25L434.25 0.25Q428.6 0.25 425.08-3.28 421.55-6.8 421.55-12.55L421.55-12.55Q421.55-18.65 424.65-22.15 427.75-25.65 432.7-25.65L432.7-25.65Q437.35-25.65 440.1-22.6 442.85-19.55 442.85-14L442.85-14Q442.85-12.3 442.65-11.3L442.65-11.3 424.75-11.3Q425.1-7.1 427.65-4.88 430.2-2.65 434.4-2.65L434.4-2.65Q438.7-2.65 441.25-4.35Z" opacity="1" transform="matrix(1,0,0,1,0,0)" fill="#0080ff" class="undefined-text-1" data-fill-palette-color="secondary" id="text-1"></path></svg></g></svg></g></svg></g></svg></g><g transform="matrix(1,0,0,1,434.03273177885853,0)"><svg viewBox="0 0 244.43135999999998 244.43135999999998" height="244.43135999999998" width="244.43135999999998"><g data-palette-color="#010c80"><rect width="66.8112384" height="244.43135999999998" fill="#010c80" stroke="transparent" data-fill-palette-color="accent" x="0" fill-opacity="1"></rect><rect width="66.8112384" height="244.43135999999998" fill="#010c80" stroke="transparent" data-fill-palette-color="accent" x="81.47711999999999" fill-opacity="0.75"></rect><rect width="66.8112384" height="244.43135999999998" fill="#010c80" stroke="transparent" data-fill-palette-color="accent" x="162.95423999999997" fill-opacity="0.5"></rect></g></svg></g></svg></g><defs></defs></svg><rect width="395.52" height="142.49463262487802" fill="none" stroke="none" visibility="hidden"></rect></g></svg></g></svg>